<svg width="100" height="100" viewBox="0 0 100 100" fill="none" xmlns="http://www.w3.org/2000/svg">
<path d="M49.9999 46.8055C51.8523 46.8055 53.6094 47.2526 55.1429 48.0514L49.9999 53.1944L44.8569 48.0514C46.3904 47.2526 48.1475 46.8055 49.9999 46.8055Z" fill="#F2F6FC"/>
<path d="M29.1138 50H26.165C26.165 36.8576 36.8576 26.1658 50 26.1658V29.1138C38.4835 29.1138 29.1138 38.4834 29.1138 50Z" fill="#48478A"/>
<path d="M50 73.8342V70.8862C61.5166 70.8862 70.8862 61.5166 70.8862 50H73.8342C73.8342 63.1424 63.1424 73.8342 50 73.8342Z" fill="#48478A"/>
<path d="M75.0107 74.5049L72.905 72.4419C66.8228 78.6484 58.6884 82.0663 50 82.0663C32.3189 82.0663 17.9337 67.6811 17.9337 50C17.9337 41.3116 21.3524 33.1772 27.5589 27.095L25.4951 24.9893C19.0704 31.2851 15.3839 39.595 15.0177 48.526H5.64423L7.91855 46.2509L5.8342 44.1658L0 50L5.8342 55.8342L7.91855 53.7491L5.64423 51.474H15.0185C15.7738 69.6114 30.3886 84.2262 48.526 84.9815V94.3558L46.2509 92.0815L44.1666 94.1666L50.0008 100L55.8342 94.1666L53.7491 92.0815L51.4748 94.3558V84.9823C60.405 84.6161 68.7149 80.9303 75.0107 74.5049Z" fill="#746CBC"/>
<path d="M94.1657 44.1658L92.0813 46.2509L94.3556 48.526H84.9814C84.2261 30.3886 69.6112 15.7738 51.4746 15.0185V5.64423L53.749 7.91855L55.8341 5.8342L49.9999 0L44.1657 5.8342L46.2508 7.91855L48.5251 5.64423V15.0154C41.1223 15.3168 34.1651 17.8886 28.3232 22.4998L30.1497 24.8138C35.8527 20.3133 42.7169 17.9337 49.9999 17.9337C67.681 17.9337 82.0662 32.3181 82.0662 50C82.0662 56.8192 79.9544 63.3301 75.9597 68.8278L78.3446 70.5612C82.4195 64.9536 84.6991 58.3824 84.9837 51.474H94.3556L92.0806 53.7491L94.1657 55.8334L99.9999 50L94.1657 44.1658Z" fill="#746CBC"/>
<path d="M31.3889 58.5403L25.5547 64.3745L31.3889 70.2087L33.474 68.1236L31.1989 65.8493H56.3889C61.3449 65.8493 62.6541 60.7055 62.6541 57.9864C62.6541 52.8183 59.5391 48.3673 55.0896 46.4035C56.7849 44.9608 57.8629 42.8131 57.8629 40.4174C57.8629 38.5589 57.2136 36.8499 56.1318 35.5026H65.6067L63.3316 37.7777L65.4167 39.862L71.2509 34.0286L65.4167 28.1944L63.3316 30.2795L65.6067 32.5538H50C45.6642 32.5538 42.1372 36.0809 42.1372 40.4167C42.1372 42.8123 43.2152 44.96 44.9105 46.4035C40.461 48.3665 37.3452 52.8183 37.3452 57.9857C37.3452 59.3353 37.6686 61.2816 38.5994 62.9005H31.1989L33.474 60.6254L31.3889 58.5403ZM45.0859 40.4167C45.0859 37.7067 47.2901 35.5026 50 35.5026C52.71 35.5026 54.9141 37.7067 54.9141 40.4167C54.9141 43.1266 52.71 45.3308 50 45.3308C47.2901 45.3308 45.0859 43.1266 45.0859 40.4167ZM52.5009 48.6084L50 51.1093L47.4991 48.6084C48.2979 48.3947 49.1356 48.2795 50 48.2795C50.8644 48.2795 51.7029 48.3947 52.5009 48.6084ZM40.8211 60.7208C40.3084 59.3925 40.2939 57.9956 40.2939 57.9857C40.2939 54.6196 42.0174 51.6487 44.6274 49.9069L50 55.2795L55.3727 49.9069C57.9827 51.6479 59.7061 54.618 59.7061 57.9818C59.7061 57.9956 59.6917 59.3925 59.1782 60.7208C58.4236 62.6747 57.2251 62.9005 56.3889 62.9005H43.6112C42.775 62.9005 41.5764 62.6747 40.8211 60.7208Z" fill="#746CBC"/>
<path d="M43.6111 70.8862H46.8055V73.8342H43.6111V70.8862Z" fill="#746CBC"/>
<path d="M53.1943 26.1658H56.3888V29.1138H53.1943V26.1658Z" fill="#746CBC"/>
</svg>
