<svg width="100" height="100" viewBox="0 0 100 100" fill="none" xmlns="http://www.w3.org/2000/svg">
<path d="M78.125 29.6875H21.875C17.8 35.8 15.625 42.9828 15.625 50.3297V54.6875L17.0312 82.8L23.7859 82.8125H79.4078L82.9688 82.7953L84.375 54.6875V50.3297C84.375 42.9828 82.2 35.8 78.125 29.6875Z" fill="#8C421C"/>
<path d="M32.8125 29.6875C29.7703 33.7438 28.125 38.6781 28.125 43.75V82.8125H34.375V43.75C34.375 38.6781 36.0203 33.7438 39.0625 29.6875H32.8125Z" fill="#FDB62F"/>
<path d="M67.1875 29.6875H60.9375C63.9797 33.7438 65.625 38.6781 65.625 43.75V82.8125H71.875V43.75C71.875 38.6781 70.2297 33.7438 67.1875 29.6875Z" fill="#FDB62F"/>
<path d="M28.125 60.9375H34.375V64.0625H28.125V60.9375Z" fill="#DB9E29"/>
<path d="M65.625 60.9375H71.875V64.0625H65.625V60.9375Z" fill="#DB9E29"/>
<path d="M4.6875 18.75H7.8125V21.875H4.6875V18.75Z" fill="#FDB62F"/>
<path d="M7.8125 21.875H10.9375V25H7.8125V21.875Z" fill="#FDB62F"/>
<path d="M10.9375 18.75H14.0625V21.875H10.9375V18.75Z" fill="#FDB62F"/>
<path d="M7.8125 15.625H10.9375V18.75H7.8125V15.625Z" fill="#FDB62F"/>
<path d="M71.875 18.75H75V21.875H71.875V18.75Z" fill="#FDB62F"/>
<path d="M75 21.875H78.125V25H75V21.875Z" fill="#FDB62F"/>
<path d="M78.125 18.75H81.25V21.875H78.125V18.75Z" fill="#FDB62F"/>
<path d="M75 15.625H78.125V18.75H75V15.625Z" fill="#FDB62F"/>
<path d="M85.9375 14.0625H89.0625V17.1875H85.9375V14.0625Z" fill="#FDB62F"/>
<path d="M81.25 7.8125H84.375V10.9375H81.25V7.8125Z" fill="#FDB62F"/>
<path d="M18.75 21.875H21.875V25H18.75V21.875Z" fill="#FDB62F"/>
<path d="M18.75 9.375H21.875V12.5H18.75V9.375Z" fill="#FDB62F"/>
<path d="M17.0312 82.7999L17.1875 85.9374L45.3125 90.6249L50 87.4999L54.6875 90.6249L82.8125 85.9374L82.9687 82.8062L17.0312 82.7999Z" fill="#783918"/>
<path d="M93.8984 43.375C92.9203 35.5563 86.2734 29.6875 78.3938 29.6875H78.125C82.2 35.8 84.375 42.9828 84.375 50.3297V54.6875L82.8125 85.9375V90.625H92.1875L94.325 66.0453C94.6531 62.2656 94.7813 58.475 94.7094 54.6875C94.6391 50.9078 94.3688 47.1313 93.8984 43.375Z" fill="#FDB62F"/>
<path d="M21.875 29.6875H21.6063C13.7266 29.6875 7.07973 35.5547 6.10161 43.375C5.16098 50.8953 5.0188 58.4953 5.67505 66.0469L7.81255 90.625H17.1875V85.9375L15.625 54.6875V50.3297C15.625 42.9828 17.8 35.8 21.875 29.6875Z" fill="#FDB62F"/>
<path d="M16.9532 81.25H6.99695L7.81257 90.625H17.1876V85.9375L16.9532 81.25Z" fill="#EDAB2C"/>
<path d="M83.0469 81.25L82.8125 85.9375V90.625H92.1875L93.0031 81.25H83.0469Z" fill="#EDAB2C"/>
<path d="M10.9375 50C10.075 50 9.375 49.3 9.375 48.4375C9.375 47.575 10.075 46.875 10.9375 46.875C11.8 46.875 12.5 47.575 12.5 48.4375C12.5 49.3 11.8 50 10.9375 50Z" fill="#30160A"/>
<path d="M10.9375 62.5C10.075 62.5 9.375 61.8 9.375 60.9375C9.375 60.075 10.075 59.375 10.9375 59.375C11.8 59.375 12.5 60.075 12.5 60.9375C12.5 61.8 11.8 62.5 10.9375 62.5Z" fill="#30160A"/>
<path d="M10.9375 75C10.075 75 9.375 74.3 9.375 73.4375C9.375 72.575 10.075 71.875 10.9375 71.875C11.8 71.875 12.5 72.575 12.5 73.4375C12.5 74.3 11.8 75 10.9375 75Z" fill="#30160A"/>
<path d="M89.0625 50C88.2 50 87.5 49.3 87.5 48.4375C87.5 47.575 88.2 46.875 89.0625 46.875C89.925 46.875 90.625 47.575 90.625 48.4375C90.625 49.3 89.925 50 89.0625 50Z" fill="#30160A"/>
<path d="M89.0625 62.5C88.2 62.5 87.5 61.8 87.5 60.9375C87.5 60.075 88.2 59.375 89.0625 59.375C89.925 59.375 90.625 60.075 90.625 60.9375C90.625 61.8 89.925 62.5 89.0625 62.5Z" fill="#30160A"/>
<path d="M89.0625 75C88.2 75 87.5 74.3 87.5 73.4375C87.5 72.575 88.2 71.875 89.0625 71.875C89.925 71.875 90.625 72.575 90.625 73.4375C90.625 74.3 89.925 75 89.0625 75Z" fill="#30160A"/>
<path opacity="0.16" d="M5.29065 53.125H94.711V56.25H5.29065V53.125Z" fill="black"/>
<path d="M53.675 63.3125L52.45 60.4375C54.7578 59.4516 56.25 57.1953 56.25 54.6875C56.25 51.2406 53.4469 48.4375 50 48.4375C46.5531 48.4375 43.75 51.2406 43.75 54.6875C43.75 57.1953 45.2422 59.4516 47.5516 60.4375L46.3266 63.3125C42.8625 61.8344 40.625 58.45 40.625 54.6875C40.625 49.5172 44.8297 45.3125 50 45.3125C55.1703 45.3125 59.375 49.5172 59.375 54.6875C59.375 58.45 57.1375 61.8344 53.675 63.3125Z" fill="#30160A"/>
<path d="M56.25 64.0625H54.6875V62.5C54.6875 59.9156 52.5844 57.8125 50 57.8125C47.4156 57.8125 45.3125 59.9156 45.3125 62.5V64.0625H43.75C42.8875 64.0625 42.1875 64.7625 42.1875 65.625V78.125C42.1875 78.9875 42.8875 79.6875 43.75 79.6875H56.25C57.1125 79.6875 57.8125 78.9875 57.8125 78.125V65.625C57.8125 64.7625 57.1125 64.0625 56.25 64.0625ZM48.4375 62.5C48.4375 61.6391 49.1391 60.9375 50 60.9375C50.8609 60.9375 51.5625 61.6391 51.5625 62.5V64.0625H48.4375V62.5Z" fill="#FDB62F"/>
<path d="M51.5625 70.3125C51.5625 69.45 50.8625 68.75 50 68.75C49.1375 68.75 48.4375 69.45 48.4375 70.3125C48.4375 70.8641 48.7391 71.325 49.1703 71.6031V76.5422H50.8313V71.6031C51.2609 71.3234 51.5625 70.8625 51.5625 70.3125Z" fill="#30160A"/>
</svg>
