<svg width="100" height="100" viewBox="0 0 100 100" fill="none" xmlns="http://www.w3.org/2000/svg">
<path d="M84.9804 58.2422L84.5171 58.4922C82.6456 56.2211 79.4032 55.341 76.9329 56.593C76.9241 56.5973 76.9153 56.602 76.9068 56.6064L75.813 57.1953C74.5086 56.0908 72.8953 55.4156 71.193 55.2619C69.4908 55.1081 67.7825 55.4831 66.3013 56.3359L60.4116 59.5391H52.5745C50.8776 59.5368 49.2028 59.1531 47.6741 58.4162L46.596 57.8947C43.5266 56.4013 40.1038 55.7864 36.7065 56.1182C33.3092 56.45 30.07 57.7155 27.3476 59.7746C27.322 59.7941 27.297 59.8137 27.2732 59.8357L24.6702 62.1529C23.6865 63.0266 22.5238 63.6747 21.2634 64.052L19.7851 59.1992C19.7118 58.959 19.5634 58.7487 19.3616 58.5993C19.1598 58.4498 18.9153 58.3691 18.6642 58.3691H6.0757C5.90984 58.3691 5.74586 58.4043 5.59462 58.4724C5.44337 58.5405 5.30831 58.6399 5.19835 58.7641C5.08839 58.8883 5.00604 59.0344 4.95675 59.1928C4.90746 59.3511 4.89235 59.5182 4.91242 59.6828L9.10851 94.0891C9.14315 94.3732 9.28059 94.6348 9.49489 94.8246C9.7092 95.0144 9.98555 95.1191 10.2718 95.1191H29.1534C29.3366 95.1191 29.5171 95.0762 29.6807 94.9938C29.8442 94.9114 29.9862 94.7918 30.0952 94.6447C30.2042 94.4975 30.2771 94.3268 30.3083 94.1464C30.3394 93.9659 30.3277 93.7806 30.2743 93.6055L27.7939 85.466L35.5193 80.5832C36.5529 80.0112 37.7656 79.8543 38.9109 80.1443C38.9351 80.1504 38.9595 80.1559 38.9841 80.1602L54.6987 83.0539C58.9694 83.8181 63.3725 83.1964 67.2646 81.2797C67.3143 81.2552 67.3622 81.2271 67.4079 81.1957L94.5884 62.5332C94.8346 62.3641 95.007 62.1074 95.0703 61.8155C95.1336 61.5236 95.0831 61.2186 94.929 60.9627C93.94 59.3155 92.3537 58.1134 90.5005 57.6066C88.6472 57.0998 86.6699 57.3275 84.9804 58.2422ZM78.0044 58.6773C79.4331 57.9619 81.2318 58.5484 82.3806 59.6447L72.0735 65.2053L71.4681 65.5242C71.1417 64.5975 70.6647 63.731 70.0564 62.9596L78.0044 58.6773ZM67.4355 58.3873C67.4446 58.382 67.455 58.377 67.4632 58.3715C68.3863 57.8379 69.4357 57.5617 70.5019 57.5717C71.5682 57.5818 72.6122 57.8776 73.5251 58.4285L68.2847 61.25C67.2857 60.5208 66.1457 60.0078 64.9374 59.7436L67.4355 58.3873ZM11.3085 92.7754L7.39933 60.7129H17.7956L27.571 92.7754H11.3085ZM66.1491 79.2147C62.7271 80.8805 58.8646 81.4172 55.1181 80.7475L39.4421 77.8607C37.7178 77.4351 35.8962 77.6819 34.3474 78.5512C34.3292 78.5611 34.3111 78.5721 34.2933 78.5834L27.0833 83.1414L21.9466 66.2955C23.5305 65.8182 24.9913 65.0012 26.2273 63.9016L28.7935 61.6164C31.171 59.8289 33.9958 58.7324 36.9567 58.4476C39.9176 58.1627 42.8996 58.7007 45.5743 60.0021L46.6523 60.5236C48.4993 61.4139 50.5228 61.8775 52.5732 61.8803H63.0273C64.5636 61.8825 66.0512 62.4196 67.2345 63.3994C68.4178 64.3792 69.2229 65.7405 69.5116 67.2494L61.9345 66.9066C59.1799 66.7828 56.4198 66.9104 53.6884 67.2877C53.3829 67.333 53.1077 67.4971 52.9225 67.7443C52.7374 67.9915 52.6573 68.3017 52.6997 68.6076C52.742 68.9135 52.9034 69.1903 53.1488 69.3779C53.3941 69.5654 53.7036 69.6486 54.0099 69.6092C56.5997 69.2512 59.2167 69.1304 61.8284 69.2482L70.7456 69.6516C70.7634 69.6516 70.7812 69.6527 70.7987 69.6527C71.1095 69.6527 71.4076 69.5293 71.6274 69.3095C71.8472 69.0897 71.9706 68.7917 71.9706 68.4809C71.9706 68.2912 71.9626 68.1033 71.9511 67.9164L73.1739 67.2719L86.0937 60.3039C87.0859 59.7666 88.2278 59.5721 89.3419 59.7507C90.4561 59.9293 91.48 60.4709 92.2546 61.2914L66.1491 79.2147Z" fill="#746CBC"/>
<path d="M15.0339 87.9274C15.0339 88.6571 15.2503 89.3704 15.6557 89.9771C16.0611 90.5838 16.6373 91.0567 17.3115 91.336C17.9857 91.6152 18.7275 91.6883 19.4432 91.5459C20.1588 91.4036 20.8162 91.0522 21.3322 90.5362C21.8482 90.0202 22.1996 89.3628 22.3419 88.6471C22.4843 87.9315 22.4112 87.1896 22.132 86.5155C21.8527 85.8413 21.3799 85.2651 20.7731 84.8597C20.1664 84.4543 19.4531 84.2379 18.7234 84.2379C17.7452 84.239 16.8074 84.6281 16.1158 85.3197C15.4241 86.0114 15.035 86.9492 15.0339 87.9274ZM18.7234 86.5817C18.9895 86.5817 19.2497 86.6606 19.471 86.8085C19.6923 86.9563 19.8648 87.1665 19.9667 87.4124C20.0685 87.6583 20.0952 87.9289 20.0432 88.1899C19.9913 88.4509 19.8631 88.6907 19.6749 88.8789C19.4867 89.0671 19.247 89.1953 18.9859 89.2472C18.7249 89.2991 18.4543 89.2725 18.2084 89.1706C17.9625 89.0688 17.7523 88.8963 17.6045 88.675C17.4566 88.4537 17.3777 88.1935 17.3777 87.9274C17.3783 87.5707 17.5203 87.2288 17.7725 86.9766C18.0248 86.7245 18.3667 86.5826 18.7234 86.5821V86.5817Z" fill="#746CBC"/>
<path d="M58.9105 17.6377V13.776C58.8995 11.4241 57.9575 9.17221 56.2905 7.51302C54.6235 5.85383 52.3673 4.92236 50.0153 4.92236C47.6634 4.92236 45.4071 5.85383 43.7401 7.51302C42.0732 9.17221 41.1311 11.4241 41.1201 13.776V17.6377C41.1311 19.9896 42.0732 22.2415 43.7401 23.9007C45.4071 25.5599 47.6634 26.4913 50.0153 26.4913C52.3673 26.4913 54.6235 25.5599 56.2905 23.9007C57.9575 22.2415 58.8995 19.9896 58.9105 17.6377ZM43.4639 17.6377V13.776C43.4733 12.0446 44.1677 10.3874 45.3953 9.16648C46.623 7.94555 48.2839 7.2602 50.0153 7.2602C51.7467 7.2602 53.4077 7.94555 54.6353 9.16648C55.8629 10.3874 56.5573 12.0446 56.5668 13.776V17.6377C56.5573 19.3691 55.8629 21.0263 54.6353 22.2472C53.4077 23.4682 51.7467 24.1535 50.0153 24.1535C48.2839 24.1535 46.623 23.4682 45.3953 22.2472C44.1677 21.0263 43.4733 19.3691 43.4639 17.6377Z" fill="#48478A"/>
<path d="M35.6773 50.669H64.3535C64.6643 50.669 64.9624 50.5455 65.1822 50.3258C65.4019 50.106 65.5254 49.8079 65.5254 49.4971V46.8073H85.1562C85.467 46.8073 85.7651 46.6838 85.9849 46.464C86.2047 46.2443 86.3281 45.9462 86.3281 45.6354V38.0291C86.3269 35.7973 85.476 33.6496 83.9485 32.0223C82.4209 30.3951 80.3312 29.4104 78.1039 29.2682C77.4789 29.2223 77.1576 29.618 76.8971 29.9358C76.3786 30.5692 75.7224 31.076 74.9784 31.4174C74.2345 31.7588 73.4224 31.9259 72.604 31.9059C71.7857 31.8859 70.9827 31.6794 70.2563 31.3021C69.5299 30.9247 68.8992 30.3866 68.4123 29.7286C68.3004 29.5771 68.1537 29.4549 67.9846 29.3722C67.8154 29.2894 67.6288 29.2487 67.4406 29.2534C65.9183 29.2875 64.4318 29.7212 63.1299 30.511C62.2704 29.5115 61.219 28.6947 60.0381 28.109C58.8572 27.5233 57.5707 27.1805 56.2549 27.101C55.6494 27.0764 55.3432 27.444 55.0465 27.8041C54.4382 28.5476 53.6682 29.1423 52.7951 29.543C51.9221 29.9437 50.9691 30.1398 50.0088 30.1164C49.0485 30.0929 48.1062 29.8505 47.2538 29.4077C46.4014 28.9648 45.6613 28.3332 45.09 27.561C44.9783 27.4094 44.8317 27.287 44.6625 27.2043C44.4933 27.1216 44.3066 27.081 44.1184 27.086C41.5484 27.1454 39.1045 28.2115 37.3127 30.0547C37.1646 30.2061 37.0242 30.3629 36.8873 30.5221C35.6772 29.7854 34.3058 29.3549 32.8918 29.2678C32.2689 29.2219 31.9453 29.6176 31.685 29.9354C31.1665 30.5688 30.5103 31.0756 29.7664 31.417C29.0224 31.7584 28.2103 31.9255 27.392 31.9055C26.5737 31.8855 25.7708 31.679 25.0444 31.3017C24.318 30.9243 23.6873 30.3862 23.2004 29.7282C23.0883 29.5769 22.9416 29.4548 22.7725 29.3721C22.6034 29.2894 22.4169 29.2485 22.2287 29.253C19.9397 29.3112 17.764 30.2614 16.1655 31.9009C14.567 33.5403 13.6722 35.7394 13.6719 38.0291V45.6354C13.6719 45.9462 13.7953 46.2443 14.0151 46.464C14.2349 46.6838 14.5329 46.8073 14.8438 46.8073H34.5055V49.4971C34.5055 49.8079 34.6289 50.106 34.8487 50.3258C35.0685 50.5455 35.3665 50.669 35.6773 50.669ZM66.9402 31.6342C67.6627 32.4543 68.551 33.1116 69.5465 33.5628C70.5419 34.0141 71.6218 34.2489 72.7147 34.2517C73.8076 34.2546 74.8887 34.0254 75.8864 33.5794C76.8842 33.1334 77.776 32.4807 78.5027 31.6645C80.0266 31.8944 81.4176 32.663 82.4234 33.8307C83.4291 34.9984 83.9829 36.488 83.9844 38.0291V44.4635H65.5254V36.9458C65.5266 35.3852 65.1553 33.8468 64.4424 32.4586C65.2081 32.0121 66.0591 31.7312 66.9402 31.6342ZM43.6133 29.4653C44.4235 30.4033 45.4258 31.1563 46.5523 31.6735C47.6788 32.1906 48.9032 32.4597 50.1427 32.4627C51.3822 32.4656 52.6079 32.2023 53.7368 31.6905C54.8658 31.1788 55.8716 30.4305 56.6863 29.4963C58.4857 29.7452 60.1344 30.6364 61.3283 32.0055C62.5222 33.3746 63.1807 35.1292 63.1824 36.9458V48.3252H36.8492V36.9458C36.8608 35.0857 37.5568 33.295 38.8044 31.9153C40.052 30.5356 41.7638 29.6635 43.6133 29.4653ZM16.0156 44.4635V38.0291C16.0255 36.4502 16.6116 34.9293 17.6636 33.7519C18.7157 32.5745 20.1614 31.8218 21.7293 31.635C22.4518 32.4548 23.34 33.1119 24.3353 33.5629C25.3306 34.014 26.4103 34.2486 27.503 34.2514C28.5957 34.2542 29.6766 34.0251 30.6742 33.5791C31.6718 33.1332 32.5634 32.4806 33.29 31.6645C34.0969 31.7851 34.8733 32.0591 35.5771 32.4715C34.8706 33.857 34.5033 35.3905 34.5055 36.9458V44.4635H16.0156Z" fill="#48478A"/>
<path d="M80.5379 21.1287V17.7484C80.5379 15.6447 79.7022 13.6272 78.2146 12.1396C76.7271 10.6521 74.7096 9.81641 72.6059 9.81641C70.5022 9.81641 68.4846 10.6521 66.9971 12.1396C65.5095 13.6272 64.6738 15.6447 64.6738 17.7484V21.1287C64.6738 23.2324 65.5095 25.25 66.9971 26.7375C68.4846 28.225 70.5022 29.0607 72.6059 29.0607C74.7096 29.0607 76.7271 28.225 78.2146 26.7375C79.7022 25.25 80.5379 23.2324 80.5379 21.1287ZM67.0176 21.1287V17.7484C67.0176 16.2663 67.6063 14.8449 68.6543 13.7969C69.7024 12.7489 71.1238 12.1602 72.6059 12.1602C74.088 12.1602 75.5094 12.7489 76.5574 13.7969C77.6054 14.8449 78.1941 16.2663 78.1941 17.7484V21.1287C78.1941 22.6108 77.6054 24.0322 76.5574 25.0802C75.5094 26.1282 74.088 26.717 72.6059 26.717C71.1238 26.717 69.7024 26.1282 68.6543 25.0802C67.6063 24.0322 67.0176 22.6108 67.0176 21.1287Z" fill="#48478A"/>
<path d="M35.3262 21.1287V17.7484C35.3262 16.7068 35.121 15.6753 34.7224 14.713C34.3238 13.7506 33.7395 12.8762 33.003 12.1396C32.2664 11.4031 31.392 10.8188 30.4296 10.4202C29.4673 10.0216 28.4358 9.81641 27.3942 9.81641C26.3525 9.81641 25.3211 10.0216 24.3587 10.4202C23.3964 10.8188 22.522 11.4031 21.7854 12.1396C21.0488 12.8762 20.4646 13.7506 20.0659 14.713C19.6673 15.6753 19.4622 16.7068 19.4622 17.7484V21.1287C19.4622 22.1704 19.6673 23.2018 20.0659 24.1642C20.4646 25.1265 21.0488 26.0009 21.7854 26.7375C22.522 27.4741 23.3964 28.0583 24.3587 28.457C25.3211 28.8556 26.3525 29.0607 27.3942 29.0607C28.4358 29.0607 29.4673 28.8556 30.4296 28.457C31.392 28.0583 32.2664 27.4741 33.003 26.7375C33.7395 26.0009 34.3238 25.1265 34.7224 24.1642C35.121 23.2018 35.3262 22.1704 35.3262 21.1287ZM21.8059 21.1287V17.7484C21.8059 16.2663 22.3947 14.8449 23.4427 13.7969C24.4907 12.7489 25.9121 12.1602 27.3942 12.1602C28.8763 12.1602 30.2977 12.7489 31.3457 13.7969C32.3937 14.8449 32.9825 16.2663 32.9825 17.7484V21.1287C32.9825 21.8626 32.8379 22.5893 32.5571 23.2673C32.2762 23.9453 31.8646 24.5613 31.3457 25.0802C30.8268 25.5991 30.2107 26.0108 29.5327 26.2916C28.8547 26.5724 28.128 26.717 27.3942 26.717C26.6603 26.717 25.9336 26.5724 25.2556 26.2916C24.5776 26.0108 23.9616 25.5991 23.4427 25.0802C22.9238 24.5613 22.5121 23.9453 22.2313 23.2673C21.9505 22.5893 21.8059 21.8626 21.8059 21.1287Z" fill="#48478A"/>
</svg>
